<svg xmlns="http://www.w3.org/2000/svg" xmlns:xlink="http://www.w3.org/1999/xlink" width="53.87" zoomAndPan="magnify" viewBox="0 0 375 374.999991" height="43.61" preserveAspectRatio="xMidYMid meet" version="1.0"><defs><filter x="0%" y="0%" width="100%" height="100%" id="id1"><feColorMatrix values="0 0 0 0 1 0 0 0 0 1 0 0 0 0 1 0 0 0 1 0" color-interpolation-filters="sRGB"/></filter><g/><mask id="id2"><g filter="url(#id1)"><rect x="-37.5" width="450" fill="#000000" y="-37.499999" height="449.999989" fill-opacity="0.7686"/></g></mask><clipPath id="id3"><rect x="0" width="311" y="0" height="375"/></clipPath></defs><g mask="url(#id2)"><g transform="matrix(1, 0, 0, 1, 32, 0)"><g clip-path="url(#id3)"><g fill="#90adc6" fill-opacity="1"><g transform="translate(0.660159, 325.124979)"><g><path d="M 154.84375 -273.171875 C 181.738281 -273.171875 206.195312 -267.148438 228.21875 -255.109375 C 250.25 -243.078125 267.601562 -226.492188 280.28125 -205.359375 C 292.96875 -184.234375 299.3125 -160.734375 299.3125 -134.859375 C 299.3125 -108.984375 292.96875 -85.414062 280.28125 -64.15625 C 267.601562 -42.90625 250.25 -26.195312 228.21875 -14.03125 C 206.195312 -1.863281 181.738281 4.21875 154.84375 4.21875 C 127.945312 4.21875 103.484375 -1.863281 81.453125 -14.03125 C 59.421875 -26.195312 42.066406 -42.84375 29.390625 -63.96875 C 16.710938 -85.101562 10.375 -108.734375 10.375 -134.859375 C 10.375 -160.734375 16.710938 -184.234375 29.390625 -205.359375 C 42.066406 -226.492188 59.351562 -243.078125 81.25 -255.109375 C 103.15625 -267.148438 127.6875 -273.171875 154.84375 -273.171875 Z M 155.609375 -220.15625 C 140.753906 -220.15625 126.921875 -216.375 114.109375 -208.8125 C 101.304688 -201.257812 91.191406 -190.953125 83.765625 -177.890625 C 76.335938 -164.828125 72.625 -150.484375 72.625 -134.859375 C 72.625 -118.984375 76.398438 -104.507812 83.953125 -91.4375 C 91.503906 -78.375 101.617188 -68 114.296875 -60.3125 C 126.984375 -52.632812 140.753906 -48.796875 155.609375 -48.796875 C 170.460938 -48.796875 184.097656 -52.570312 196.515625 -60.125 C 208.941406 -67.6875 218.804688 -78.0625 226.109375 -91.25 C 233.410156 -104.445312 237.0625 -118.984375 237.0625 -134.859375 C 237.0625 -150.484375 233.410156 -164.828125 226.109375 -177.890625 C 218.804688 -190.953125 208.941406 -201.257812 196.515625 -208.8125 C 184.097656 -216.375 170.460938 -220.15625 155.609375 -220.15625 Z M 155.609375 -220.15625 "/></g></g></g></g></g></g><g fill="#1f628e" fill-opacity="1"><g transform="translate(33.011721, 326.349953)"><g><path d="M 227.171875 -187.109375 C 217.835938 -198.265625 206.878906 -207.015625 194.296875 -213.359375 C 181.722656 -219.710938 169.082031 -222.890625 156.375 -222.890625 C 141.070312 -222.890625 127.066406 -219.128906 114.359375 -211.609375 C 101.660156 -204.085938 91.675781 -193.84375 84.40625 -180.875 C 77.144531 -167.914062 73.515625 -153.523438 73.515625 -137.703125 C 73.515625 -121.890625 77.144531 -107.429688 84.40625 -94.328125 C 91.675781 -81.234375 101.660156 -70.859375 114.359375 -63.203125 C 127.066406 -55.554688 141.070312 -51.734375 156.375 -51.734375 C 168.5625 -51.734375 180.941406 -54.648438 193.515625 -60.484375 C 206.097656 -66.316406 217.316406 -74.164062 227.171875 -84.03125 L 263.359375 -44.734375 C 248.828125 -29.691406 231.769531 -17.757812 212.1875 -8.9375 C 192.613281 -0.125 172.972656 4.28125 153.265625 4.28125 C 126.554688 4.28125 102.304688 -1.875 80.515625 -14.1875 C 58.734375 -26.507812 41.617188 -43.429688 29.171875 -64.953125 C 16.722656 -86.484375 10.5 -110.472656 10.5 -136.921875 C 10.5 -163.117188 16.851562 -186.847656 29.5625 -208.109375 C 42.269531 -229.378906 59.707031 -246.109375 81.875 -258.296875 C 104.050781 -270.484375 128.625 -276.578125 155.59375 -276.578125 C 175.300781 -276.578125 194.75 -272.492188 213.9375 -264.328125 C 233.132812 -256.160156 249.476562 -245.070312 262.96875 -231.0625 Z M 227.171875 -187.109375 "/></g></g></g></svg>